<?xml version="1.0" encoding="utf-8"?><!-- Svg Vector Icons : http://www.onlinewebfonts.com/icon --><!DOCTYPE svg PUBLIC "-//W3C//DTD SVG 1.1//EN" "http://www.w3.org/Graphics/SVG/1.1/DTD/svg11.dtd"><svg xmlns="http://www.w3.org/2000/svg" xmlns:xlink="http://www.w3.org/1999/xlink" version="1.1" x="0px" y="0px" viewBox="0 0 256 256" enable-background="new 0 0 256 256" xml:space="preserve">
<metadata> Svg Vector Icons : http://www.onlinewebfonts.com/icon </metadata>
<g><g><path fill="#d55114f4" d="M185.7,10H70.3C37.2,10,10,37.2,10,70.3v115.3c0,33.2,27.2,60.3,60.3,60.3h115.3c33.2,0,60.3-27.2,60.3-60.3V70.3C246,37.2,218.8,10,185.7,10z M145.4,194.1h-12.2c-26.5-0.1-47.9-21.6-47.9-48.1v-27.5h-3.6c-6.6,0-12-5.4-12-12c0-6.6,5.4-12,12-12h3.6V79.2c0-6.6,5.4-12,12-12c6.6,0,12,5.4,12,12v15.2h26.9c6.6,0,12,5.4,12,12c0,6.6-3.8,12-10.4,12h-1.6h-26.8v27.5c0,13.3,10.8,24.1,24.1,24.1h12c6.6,0,12,5.4,12,12C157.5,188.7,152.1,194.1,145.4,194.1z M166.3,102c-2.2,0-4-1.8-4-4c0-6.6-5.4-12-12-12l0,0c-2.2,0-4-1.8-4-4c0-2.2,1.8-4,4-4c11.1,0,20,9,20,20C170.3,100.3,168.5,102,166.3,102z M182.3,102c-2.2,0-4-1.8-4-4c0-15.5-12.6-28.1-28.1-28.1c-2.2,0-4-1.8-4-4c0-2.2,1.8-4,4-4c19.9,0,36.1,16.2,36.1,36.1C186.3,100.3,184.5,102,182.3,102z"/></g></g>
</svg>